<?xml version="1.0" encoding="UTF-8"?>
<svg width="102px" height="102px" viewBox="0 0 102 102" version="1.1" xmlns="http://www.w3.org/2000/svg" xmlns:xlink="http://www.w3.org/1999/xlink">
    <!-- Generator: sketchtool 53.1 (72631) - https://sketchapp.com -->
    <title>1CD7C6AC-F036-459D-AB98-245D3CEEDE17</title>
    <desc>Created with sketchtool.</desc>
    <g id="Final-Design" stroke="none" stroke-width="1" fill="none" fill-rule="evenodd">
        <g id="2-Login" transform="translate(-133.000000, -226.000000)">
            <g id="Group-2" transform="translate(134.000000, 227.000000)">
                <circle id="Oval" stroke="#EF8133" fill="#FFFFFF" cx="50" cy="50" r="50"></circle>
                <g id="password" transform="translate(23.000000, 23.000000)" fill="#EF8133" fill-rule="nonzero">
                    <circle id="Oval" cx="36.2378168" cy="37.0956238" r="2.14424951"></circle>
                    <path d="M25.5165692,50.6043957 L8.57699805,50.6043957 C6.21231969,50.6043957 4.28849903,48.680575 4.28849903,46.3158967 L4.28849903,28.7330507 C4.28849903,26.3683723 6.21231969,24.4445517 8.57699805,24.4445517 L39.454191,24.4445517 C41.8188694,24.4445517 43.7426901,26.3683723 43.7426901,28.7330507 L43.7426901,33.0215497 C43.7426901,34.2058187 44.7026706,35.1657992 45.8869396,35.1657992 C47.0712086,35.1657992 48.0311891,34.2058187 48.0311891,33.0215497 L48.0311891,28.7330507 C48.0311891,24.003694 44.1835478,20.1560526 39.454191,20.1560526 L36.8771248,20.1560526 L36.8771248,12.5939279 C36.8771248,5.64966862 31.1056628,0.000107212476 24.0116277,0.000107212476 C16.9175926,0.000107212476 11.1461306,5.64966862 11.1461306,12.5939279 L11.1461306,20.1560526 L8.57699805,20.1560526 C3.84764133,20.1560526 0,24.003694 0,28.7330507 L0,46.3158967 C0,51.0452534 3.84764133,54.8928947 8.57699805,54.8928947 L25.5165692,54.8928947 C26.7008382,54.8928947 27.6608187,53.9329142 27.6608187,52.7486452 C27.6608187,51.5643762 26.7008382,50.6043957 25.5165692,50.6043957 Z M15.4346296,12.5939279 C15.4346296,8.01434698 19.282271,4.28860624 24.0116277,4.28860624 C28.7409844,4.28860624 32.5886257,8.01434698 32.5886257,12.5939279 L32.5886257,20.1560526 L15.4346296,20.1560526 L15.4346296,12.5939279 Z" id="Shape"></path>
                    <path d="M53.9968129,34.9232846 C53.0338304,34.2338012 51.6942105,34.4556238 51.0051559,35.4186062 L40.4360429,50.1817641 C40.1474269,50.5164815 39.785692,50.5887427 39.5918519,50.6016082 C39.3930799,50.6147953 39.0103314,50.5896004 38.6733626,50.2734308 L31.8430702,43.607924 C30.9954483,42.7806725 29.637924,42.7975049 28.8108869,43.6449123 C27.9837427,44.4924269 28.0002534,45.8499513 28.8478752,46.6770955 L35.6901754,53.3543957 C35.6966082,53.360614 35.7029337,53.3668324 35.7094737,53.3729435 C36.7351754,54.3495419 38.104386,54.8927875 39.5131579,54.8927875 C39.6342008,54.8927875 39.7555653,54.8888207 39.8769298,54.8806725 C41.4115692,54.7783918 42.8444639,54.0320858 43.8079825,52.8332359 C43.8328558,52.8021442 43.8568713,52.7705166 43.8801365,52.7381384 L54.4921345,37.9149415 C55.1814035,36.9520663 54.9596881,35.6125536 53.9968129,34.9232846 Z" id="Path"></path>
                    <circle id="Oval" cx="28.0896686" cy="37.0956238" r="2.14424951"></circle>
                    <circle id="Oval" cx="12.0077973" cy="37.0956238" r="2.14424951"></circle>
                    <circle id="Oval" cx="20.0487329" cy="37.0956238" r="2.14424951"></circle>
                </g>
            </g>
        </g>
    </g>
</svg>